<?xml version="1.0" encoding="UTF-8"?>
<svg xmlns="http://www.w3.org/2000/svg" viewBox="0 0 1902 1005" width="1902" height="1005" role="img" aria-labelledby="title desc">
  <title id="title">Logo Bella Jeri Tour</title>
  <desc id="desc">Logo da Bella Jeri Tour em laranja e verde, com coqueiro, Pedra Furada, sol e o nome da agência.</desc>
  <g fill-rule="evenodd">
    <path fill="#4A7C28" d="M1855.0,604.0L1835.0,609.0L1827.0,609.0L1820.0,611.0L1807.0,611.0L1797.0,613.0L1805.0,620.0L1809.0,628.0L1809.0,653.0L1808.0,654.0L1808.0,663.0L1807.0,664.0L1805.0,704.0L1803.0,713.0L1803.0,726.0L1801.0,735.0L1801.0,748.0L1799.0,758.0L1799.0,771.0L1797.0,779.0L1797.0,786.0L1791.0,801.0L1784.0,807.0L1784.0,810.0L1851.0,810.0L1846.0,805.0L1842.0,798.0L1841.0,793.0L1841.0,768.0L1842.0,767.0L1842.0,754.0L1844.0,744.0L1844.0,729.0L1846.0,722.0L1846.0,710.0L1847.0,709.0L1847.0,700.0L1848.0,699.0L1848.0,684.0L1850.0,674.0L1850.0,662.0L1852.0,654.0L1852.0,641.0L1854.0,631.0L1854.0,618.0L1855.0,617.0L1855.0,607.0L1856.0,606.0ZM1772.0,605.0L1769.0,605.0L1765.0,603.0L1744.0,603.0L1736.0,605.0L1733.0,607.0L1730.0,607.0L1713.0,617.0L1701.0,629.0L1692.0,641.0L1690.0,640.0L1692.0,630.0L1692.0,612.0L1693.0,611.0L1693.0,605.0L1692.0,604.0L1672.0,609.0L1637.0,613.0L1637.0,615.0L1645.0,622.0L1649.0,634.0L1647.0,678.0L1645.0,688.0L1645.0,701.0L1643.0,710.0L1643.0,723.0L1642.0,724.0L1642.0,733.0L1641.0,734.0L1641.0,747.0L1640.0,748.0L1639.0,773.0L1638.0,774.0L1637.0,787.0L1632.0,800.0L1622.0,810.0L1650.0,810.0L1651.0,811.0L1676.0,811.0L1677.0,810.0L1690.0,811.0L1691.0,810.0L1684.0,801.0L1682.0,795.0L1681.0,779.0L1682.0,778.0L1682.0,763.0L1683.0,762.0L1683.0,752.0L1684.0,751.0L1684.0,735.0L1686.0,726.0L1686.0,713.0L1688.0,703.0L1688.0,694.0L1692.0,678.0L1696.0,668.0L1701.0,660.0L1713.0,648.0L1719.0,644.0L1729.0,640.0L1734.0,640.0L1739.0,638.0L1748.0,638.0L1757.0,640.0L1767.0,645.0L1770.0,645.0L1771.0,627.0L1772.0,626.0L1772.0,610.0L1773.0,609.0ZM1547.0,605.0L1539.0,605.0L1531.0,603.0L1515.0,603.0L1508.0,605.0L1502.0,605.0L1487.0,609.0L1470.0,617.0L1451.0,631.0L1440.0,643.0L1431.0,656.0L1431.0,658.0L1429.0,660.0L1423.0,673.0L1423.0,676.0L1421.0,679.0L1419.0,690.0L1417.0,694.0L1417.0,701.0L1415.0,710.0L1415.0,726.0L1417.0,733.0L1417.0,740.0L1419.0,744.0L1421.0,754.0L1425.0,764.0L1435.0,780.0L1454.0,798.0L1463.0,804.0L1477.0,810.0L1480.0,810.0L1484.0,812.0L1489.0,812.0L1494.0,814.0L1527.0,814.0L1532.0,812.0L1538.0,812.0L1542.0,810.0L1545.0,810.0L1556.0,806.0L1577.0,794.0L1592.0,780.0L1597.0,771.0L1598.0,760.0L1595.0,760.0L1591.0,765.0L1581.0,773.0L1558.0,785.0L1536.0,790.0L1512.0,789.0L1497.0,783.0L1484.0,773.0L1472.0,756.0L1466.0,741.0L1466.0,737.0L1464.0,732.0L1464.0,725.0L1463.0,724.0L1463.0,722.0L1465.0,720.0L1473.0,718.0L1479.0,718.0L1483.0,716.0L1489.0,716.0L1493.0,714.0L1498.0,714.0L1503.0,712.0L1509.0,712.0L1522.0,708.0L1527.0,708.0L1554.0,700.0L1567.0,698.0L1570.0,696.0L1575.0,696.0L1579.0,694.0L1601.0,690.0L1603.0,688.0L1604.0,675.0L1603.0,674.0L1602.0,657.0L1598.0,644.0L1592.0,633.0L1582.0,622.0L1574.0,616.0L1565.0,611.0ZM1556.0,637.0L1561.0,647.0L1564.0,660.0L1564.0,675.0L1563.0,678.0L1560.0,681.0L1550.0,685.0L1547.0,685.0L1544.0,687.0L1540.0,687.0L1528.0,691.0L1523.0,691.0L1519.0,693.0L1514.0,693.0L1510.0,695.0L1505.0,695.0L1501.0,697.0L1495.0,697.0L1490.0,699.0L1466.0,700.0L1463.0,697.0L1464.0,679.0L1472.0,654.0L1480.0,640.0L1495.0,626.0L1510.0,620.0L1516.0,620.0L1517.0,619.0L1532.0,620.0L1544.0,625.0ZM1417.0,537.0L1402.0,537.0L1392.0,539.0L1354.0,541.0L1353.0,542.0L1332.0,543.0L1330.0,544.0L1335.0,549.0L1341.0,560.0L1342.0,576.0L1341.0,577.0L1341.0,591.0L1339.0,601.0L1339.0,614.0L1337.0,623.0L1335.0,658.0L1333.0,668.0L1333.0,681.0L1331.0,691.0L1331.0,703.0L1329.0,713.0L1329.0,724.0L1327.0,731.0L1327.0,740.0L1325.0,746.0L1325.0,751.0L1317.0,781.0L1304.0,806.0L1290.0,820.0L1271.0,829.0L1268.0,829.0L1264.0,831.0L1253.0,831.0L1252.0,832.0L1227.0,829.0L1207.0,821.0L1194.0,811.0L1184.0,800.0L1178.0,790.0L1176.0,790.0L1177.0,801.0L1181.0,818.0L1189.0,832.0L1201.0,844.0L1215.0,852.0L1234.0,858.0L1252.0,859.0L1253.0,860.0L1264.0,860.0L1265.0,859.0L1280.0,858.0L1300.0,852.0L1321.0,842.0L1333.0,833.0L1346.0,820.0L1354.0,810.0L1366.0,789.0L1372.0,774.0L1378.0,751.0L1381.0,726.0L1382.0,725.0L1382.0,716.0L1384.0,706.0L1384.0,693.0L1386.0,685.0L1386.0,673.0L1388.0,665.0L1388.0,653.0L1390.0,643.0L1390.0,631.0L1392.0,622.0L1392.0,609.0L1394.0,601.0L1394.0,590.0L1395.0,589.0L1395.0,581.0L1396.0,580.0L1396.0,573.0L1398.0,563.0L1404.0,550.0ZM1825.0,529.0L1816.0,535.0L1811.0,542.0L1809.0,548.0L1809.0,560.0L1811.0,563.0L1811.0,566.0L1819.0,576.0L1826.0,580.0L1843.0,580.0L1849.0,577.0L1858.0,567.0L1861.0,557.0L1860.0,546.0L1856.0,538.0L1851.0,533.0L1844.0,529.0L1839.0,528.0ZM1500.0,283.0L1500.0,284.0L1507.0,284.0L1525.0,288.0L1536.0,294.0L1538.0,294.0L1544.0,298.0L1557.0,311.0L1559.0,315.0L1562.0,315.0L1566.0,308.0L1581.0,294.0L1598.0,286.0L1613.0,284.0L1609.0,281.0L1590.0,281.0L1585.0,283.0L1580.0,283.0L1570.0,287.0L1561.0,293.0L1559.0,293.0L1543.0,285.0L1526.0,281.0L1510.0,281.0ZM565.0,448.0L570.0,448.0L574.0,446.0L579.0,446.0L583.0,444.0L588.0,444.0L603.0,440.0L610.0,440.0L615.0,438.0L634.0,436.0L649.0,432.0L657.0,432.0L662.0,430.0L685.0,428.0L691.0,426.0L700.0,426.0L705.0,424.0L714.0,424.0L721.0,422.0L730.0,422.0L737.0,420.0L744.0,420.0L749.0,418.0L758.0,418.0L764.0,416.0L775.0,416.0L783.0,414.0L793.0,414.0L794.0,413.0L811.0,412.0L819.0,410.0L832.0,410.0L840.0,408.0L856.0,408.0L866.0,406.0L884.0,406.0L894.0,404.0L913.0,404.0L923.0,402.0L943.0,402.0L944.0,401.0L954.0,401.0L955.0,400.0L980.0,400.0L981.0,399.0L996.0,399.0L997.0,398.0L1032.0,398.0L1033.0,397.0L1046.0,397.0L1047.0,396.0L1080.0,396.0L1081.0,395.0L1104.0,395.0L1105.0,394.0L1180.0,394.0L1181.0,393.0L1319.0,394.0L1320.0,395.0L1335.0,395.0L1336.0,396.0L1361.0,396.0L1362.0,397.0L1373.0,397.0L1374.0,398.0L1416.0,400.0L1426.0,402.0L1458.0,404.0L1465.0,406.0L1475.0,406.0L1484.0,408.0L1495.0,408.0L1502.0,410.0L1513.0,410.0L1519.0,412.0L1527.0,412.0L1533.0,414.0L1555.0,416.0L1560.0,418.0L1578.0,420.0L1594.0,424.0L1601.0,424.0L1606.0,426.0L1623.0,428.0L1627.0,430.0L1632.0,430.0L1647.0,434.0L1653.0,434.0L1657.0,436.0L1663.0,436.0L1663.0,435.0L1659.0,435.0L1656.0,433.0L1632.0,427.0L1629.0,425.0L1618.0,423.0L1615.0,421.0L1611.0,421.0L1607.0,419.0L1603.0,419.0L1583.0,413.0L1568.0,411.0L1565.0,409.0L1559.0,409.0L1555.0,407.0L1539.0,405.0L1535.0,403.0L1529.0,403.0L1525.0,401.0L1519.0,401.0L1515.0,399.0L1509.0,399.0L1505.0,397.0L1499.0,397.0L1495.0,395.0L1488.0,395.0L1482.0,393.0L1473.0,393.0L1468.0,391.0L1461.0,391.0L1456.0,389.0L1437.0,387.0L1432.0,385.0L1423.0,385.0L1418.0,383.0L1411.0,383.0L1406.0,381.0L1385.0,379.0L1365.0,375.0L1352.0,371.0L1346.0,368.0L1337.0,361.0L1330.0,354.0L1317.0,337.0L1307.0,328.0L1298.0,325.0L1282.0,328.0L1272.0,318.0L1248.0,287.0L1239.0,281.0L1236.0,280.0L1227.0,281.0L1217.0,287.0L1213.0,291.0L1200.0,277.0L1191.0,271.0L1186.0,266.0L1178.0,246.0L1170.0,235.0L1159.0,226.0L1147.0,221.0L1138.0,204.0L1126.0,191.0L1120.0,187.0L1106.0,181.0L1092.0,181.0L1082.0,185.0L1072.0,186.0L1048.0,173.0L1040.0,171.0L1034.0,171.0L1025.0,173.0L1016.0,177.0L974.0,203.0L972.0,203.0L970.0,205.0L950.0,214.0L924.0,221.0L918.0,221.0L910.0,223.0L898.0,223.0L883.0,228.0L875.0,235.0L865.0,248.0L863.0,249.0L839.0,281.0L833.0,287.0L821.0,303.0L812.0,312.0L807.0,315.0L803.0,315.0L799.0,317.0L781.0,317.0L780.0,318.0L770.0,319.0L764.0,322.0L759.0,327.0L743.0,350.0L729.0,366.0L715.0,379.0L698.0,392.0L687.0,399.0L685.0,399.0L683.0,401.0L663.0,411.0L661.0,411.0L659.0,413.0L652.0,415.0L650.0,417.0L635.0,423.0L626.0,425.0L602.0,435.0L599.0,435.0L591.0,439.0L569.0,445.0ZM994.0,284.0L1003.0,278.0L1011.0,270.0L1016.0,262.0L1022.0,256.0L1034.0,250.0L1048.0,240.0L1057.0,237.0L1064.0,237.0L1073.0,240.0L1080.0,244.0L1093.0,258.0L1111.0,271.0L1113.0,281.0L1117.0,292.0L1129.0,304.0L1129.0,322.0L1133.0,331.0L1139.0,340.0L1128.0,350.0L1123.0,358.0L1121.0,364.0L1121.0,376.0L1115.0,379.0L1112.0,379.0L1108.0,381.0L1103.0,381.0L1098.0,383.0L1091.0,383.0L1085.0,385.0L1077.0,385.0L1071.0,387.0L1060.0,387.0L1050.0,389.0L1045.0,387.0L1032.0,377.0L1030.0,377.0L1020.0,371.0L1012.0,369.0L997.0,362.0L996.0,344.0L992.0,336.0L981.0,325.0L982.0,321.0L988.0,315.0L994.0,303.0ZM40.0,243.0L40.0,246.0L42.0,246.0L61.0,228.0L82.0,214.0L84.0,214.0L86.0,212.0L88.0,212.0L90.0,210.0L104.0,204.0L107.0,204.0L116.0,200.0L120.0,200.0L123.0,198.0L125.0,198.0L126.0,200.0L115.0,215.0L111.0,222.0L111.0,224.0L114.0,224.0L124.0,218.0L151.0,208.0L171.0,204.0L191.0,204.0L192.0,206.0L177.0,220.0L173.0,225.0L173.0,228.0L189.0,224.0L219.0,223.0L220.0,224.0L229.0,224.0L234.0,226.0L238.0,226.0L241.0,228.0L250.0,230.0L264.0,236.0L282.0,247.0L296.0,258.0L314.0,277.0L312.0,279.0L305.0,275.0L302.0,275.0L293.0,271.0L270.0,265.0L263.0,265.0L254.0,263.0L234.0,263.0L226.0,265.0L219.0,265.0L215.0,267.0L211.0,267.0L207.0,269.0L197.0,271.0L187.0,275.0L181.0,279.0L179.0,279.0L163.0,289.0L148.0,301.0L137.0,313.0L127.0,327.0L117.0,346.0L113.0,356.0L113.0,359.0L111.0,362.0L111.0,366.0L107.0,379.0L107.0,386.0L105.0,391.0L104.0,408.0L105.0,409.0L105.0,428.0L106.0,429.0L108.0,429.0L121.0,403.0L138.0,379.0L155.0,361.0L162.0,356.0L170.0,348.0L184.0,338.0L187.0,340.0L185.0,348.0L185.0,358.0L187.0,358.0L190.0,353.0L210.0,332.0L226.0,318.0L244.0,306.0L258.0,300.0L260.0,298.0L284.0,290.0L308.0,288.0L309.0,289.0L325.0,290.0L337.0,296.0L348.0,304.0L371.0,328.0L383.0,346.0L388.0,357.0L390.0,359.0L392.0,358.0L392.0,343.0L393.0,342.0L395.0,343.0L407.0,366.0L415.0,389.0L418.0,390.0L420.0,380.0L422.0,379.0L429.0,393.0L429.0,396.0L433.0,406.0L433.0,411.0L437.0,427.0L437.0,439.0L438.0,440.0L437.0,449.0L438.0,451.0L440.0,451.0L446.0,436.0L448.0,425.0L450.0,421.0L450.0,415.0L452.0,408.0L452.0,389.0L450.0,383.0L450.0,377.0L448.0,373.0L448.0,368.0L442.0,351.0L440.0,349.0L436.0,339.0L426.0,325.0L414.0,313.0L390.0,297.0L383.0,295.0L381.0,293.0L378.0,293.0L376.0,291.0L373.0,291.0L362.0,287.0L356.0,287.0L352.0,285.0L356.0,283.0L376.0,282.0L385.0,284.0L393.0,284.0L406.0,288.0L410.0,288.0L425.0,294.0L427.0,296.0L429.0,296.0L446.0,305.0L467.0,320.0L482.0,333.0L484.0,331.0L480.0,317.0L483.0,316.0L504.0,330.0L516.0,340.0L537.0,361.0L545.0,371.0L553.0,384.0L555.0,384.0L555.0,366.0L554.0,365.0L554.0,356.0L552.0,352.0L552.0,348.0L546.0,330.0L536.0,311.0L530.0,303.0L512.0,285.0L498.0,275.0L472.0,263.0L446.0,257.0L423.0,256.0L422.0,255.0L398.0,257.0L393.0,259.0L379.0,261.0L376.0,263.0L367.0,265.0L347.0,273.0L336.0,279.0L334.0,277.0L356.0,256.0L366.0,250.0L370.0,246.0L393.0,234.0L423.0,224.0L439.0,222.0L441.0,221.0L440.0,218.0L441.0,216.0L473.0,216.0L478.0,217.0L478.0,215.0L467.0,206.0L469.0,204.0L474.0,204.0L490.0,200.0L514.0,199.0L515.0,198.0L534.0,198.0L535.0,199.0L554.0,200.0L579.0,206.0L581.0,208.0L584.0,208.0L584.0,207.0L558.0,181.0L539.0,169.0L521.0,161.0L499.0,155.0L490.0,155.0L489.0,154.0L453.0,155.0L436.0,159.0L416.0,167.0L400.0,176.0L386.0,186.0L365.0,207.0L358.0,216.0L343.0,240.0L337.0,255.0L335.0,256.0L334.0,253.0L338.0,241.0L340.0,221.0L342.0,215.0L342.0,205.0L343.0,204.0L342.0,158.0L336.0,130.0L324.0,103.0L316.0,91.0L306.0,79.0L291.0,65.0L279.0,57.0L261.0,49.0L231.0,41.0L187.0,40.0L185.0,41.0L186.0,43.0L201.0,50.0L203.0,52.0L205.0,52.0L223.0,64.0L240.0,78.0L259.0,98.0L274.0,118.0L273.0,119.0L269.0,119.0L265.0,117.0L259.0,117.0L255.0,115.0L248.0,115.0L249.0,118.0L265.0,133.0L287.0,160.0L297.0,176.0L305.0,192.0L311.0,207.0L311.0,210.0L313.0,213.0L315.0,224.0L317.0,228.0L317.0,233.0L319.0,238.0L319.0,245.0L321.0,251.0L321.0,271.0L320.0,272.0L318.0,270.0L316.0,261.0L314.0,259.0L314.0,257.0L306.0,243.0L306.0,241.0L294.0,221.0L282.0,206.0L264.0,189.0L248.0,177.0L226.0,165.0L202.0,157.0L186.0,154.0L179.0,154.0L178.0,153.0L154.0,153.0L148.0,155.0L140.0,155.0L130.0,157.0L127.0,159.0L123.0,159.0L103.0,167.0L88.0,176.0L74.0,187.0L61.0,201.0L49.0,220.0Z"/>
    <path fill="#E8651A" d="M1270.0,929.0L1270.0,934.0L1271.0,935.0L1384.0,935.0L1386.0,934.0L1386.0,929.0L1385.0,928.0L1271.0,928.0ZM637.0,929.0L637.0,934.0L639.0,935.0L753.0,935.0L754.0,934.0L754.0,929.0L752.0,928.0L742.0,928.0L741.0,927.0L715.0,927.0L714.0,928.0L711.0,927.0L639.0,927.0ZM1047.0,903.0L1046.0,905.0L1046.0,946.0L1050.0,956.0L1058.0,962.0L1067.0,964.0L1076.0,963.0L1088.0,956.0L1090.0,962.0L1102.0,962.0L1104.0,959.0L1103.0,955.0L1104.0,918.0L1103.0,917.0L1103.0,905.0L1102.0,903.0L1090.0,903.0L1088.0,906.0L1088.0,941.0L1086.0,946.0L1082.0,950.0L1077.0,952.0L1069.0,952.0L1065.0,950.0L1062.0,946.0L1062.0,939.0L1061.0,938.0L1061.0,925.0L1062.0,924.0L1061.0,905.0L1059.0,903.0ZM1209.0,903.0L1203.0,903.0L1202.0,902.0L1196.0,903.0L1187.0,910.0L1183.0,903.0L1173.0,903.0L1172.0,905.0L1172.0,960.0L1173.0,962.0L1186.0,962.0L1187.0,961.0L1187.0,928.0L1188.0,924.0L1193.0,918.0L1198.0,915.0L1210.0,914.0L1210.0,905.0ZM931.0,906.0L922.0,914.0L917.0,925.0L917.0,940.0L919.0,947.0L924.0,955.0L932.0,961.0L939.0,963.0L958.0,963.0L962.0,962.0L972.0,956.0L977.0,950.0L981.0,940.0L981.0,926.0L976.0,915.0L968.0,907.0L955.0,902.0L942.0,902.0ZM946.0,913.0L954.0,914.0L958.0,916.0L963.0,921.0L966.0,930.0L966.0,936.0L963.0,945.0L958.0,950.0L949.0,953.0L943.0,952.0L935.0,946.0L932.0,939.0L932.0,934.0L931.0,933.0L933.0,924.0L936.0,919.0L942.0,914.0ZM827.0,887.0L823.0,893.0L821.0,901.0L819.0,903.0L816.0,903.0L812.0,905.0L812.0,914.0L821.0,916.0L820.0,926.0L821.0,927.0L821.0,950.0L822.0,954.0L827.0,960.0L834.0,963.0L851.0,962.0L853.0,959.0L852.0,951.0L840.0,952.0L836.0,948.0L836.0,916.0L844.0,914.0L847.0,915.0L852.0,914.0L853.0,911.0L852.0,905.0L851.0,904.0L838.0,904.0L835.0,901.0L836.0,900.0L835.0,888.0L834.0,887.0ZM976.0,621.0L974.0,625.0L974.0,633.0L972.0,643.0L972.0,652.0L973.0,653.0L995.0,633.0L1013.0,624.0L1029.0,620.0L1039.0,620.0L1040.0,619.0L1053.0,620.0L1063.0,623.0L1071.0,628.0L1078.0,635.0L1083.0,644.0L1086.0,660.0L1086.0,673.0L1083.0,678.0L1061.0,683.0L1056.0,683.0L1050.0,685.0L1019.0,690.0L1004.0,694.0L1001.0,696.0L998.0,696.0L983.0,703.0L971.0,711.0L960.0,722.0L955.0,729.0L948.0,744.0L946.0,754.0L946.0,770.0L951.0,786.0L961.0,800.0L976.0,809.0L989.0,813.0L994.0,813.0L995.0,814.0L1022.0,814.0L1042.0,809.0L1056.0,802.0L1069.0,793.0L1078.0,784.0L1080.0,790.0L1080.0,810.0L1081.0,811.0L1138.0,811.0L1138.0,809.0L1134.0,807.0L1127.0,799.0L1123.0,788.0L1123.0,764.0L1124.0,763.0L1124.0,753.0L1125.0,752.0L1127.0,709.0L1128.0,708.0L1129.0,682.0L1130.0,681.0L1130.0,661.0L1125.0,638.0L1120.0,628.0L1113.0,619.0L1103.0,611.0L1093.0,606.0L1082.0,603.0L1071.0,602.0L1070.0,601.0L1038.0,601.0L1037.0,602.0L1023.0,603.0L1007.0,607.0L989.0,614.0L987.0,616.0ZM1078.0,784.0L1079.0,783.0L1080.0,784.0L1079.0,785.0ZM1085.0,698.0L1084.0,699.0L1084.0,711.0L1083.0,712.0L1083.0,723.0L1082.0,724.0L1081.0,742.0L1080.0,743.0L1080.0,753.0L1073.0,766.0L1064.0,775.0L1050.0,783.0L1035.0,787.0L1021.0,787.0L1012.0,785.0L1000.0,777.0L996.0,772.0L993.0,764.0L992.0,746.0L994.0,738.0L997.0,732.0L1012.0,716.0L1028.0,707.0L1048.0,701.0L1070.0,698.0L1071.0,697.0L1077.0,697.0L1078.0,696.0L1083.0,696.0ZM601.0,599.0L585.0,602.0L560.0,612.0L550.0,618.0L543.0,624.0L527.0,641.0L516.0,658.0L511.0,668.0L507.0,680.0L504.0,694.0L504.0,701.0L503.0,702.0L503.0,725.0L504.0,726.0L506.0,742.0L516.0,767.0L527.0,783.0L541.0,796.0L548.0,801.0L562.0,808.0L579.0,813.0L589.0,814.0L590.0,815.0L619.0,815.0L620.0,814.0L632.0,813.0L652.0,807.0L666.0,800.0L678.0,792.0L689.0,782.0L694.0,775.0L697.0,765.0L696.0,759.0L693.0,760.0L687.0,766.0L673.0,776.0L659.0,783.0L650.0,786.0L635.0,789.0L611.0,789.0L601.0,787.0L589.0,782.0L580.0,776.0L570.0,765.0L559.0,746.0L554.0,729.0L554.0,722.0L557.0,719.0L568.0,718.0L601.0,711.0L606.0,711.0L611.0,709.0L616.0,709.0L650.0,700.0L677.0,695.0L681.0,693.0L700.0,689.0L703.0,686.0L703.0,659.0L699.0,644.0L691.0,630.0L679.0,617.0L669.0,610.0L661.0,606.0L640.0,600.0ZM654.0,638.0L657.0,644.0L660.0,656.0L660.0,675.0L657.0,679.0L633.0,687.0L605.0,693.0L600.0,693.0L590.0,696.0L578.0,697.0L577.0,698.0L554.0,698.0L553.0,697.0L554.0,679.0L559.0,660.0L568.0,642.0L574.0,634.0L585.0,624.0L595.0,619.0L606.0,616.0L629.0,617.0L644.0,625.0ZM916.0,509.0L912.0,509.0L898.0,513.0L893.0,513.0L888.0,515.0L864.0,517.0L858.0,519.0L859.0,522.0L865.0,528.0L868.0,540.0L868.0,548.0L867.0,549.0L867.0,565.0L866.0,566.0L866.0,577.0L865.0,578.0L865.0,589.0L864.0,590.0L863.0,613.0L862.0,614.0L860.0,654.0L859.0,655.0L859.0,664.0L858.0,665.0L858.0,679.0L857.0,680.0L857.0,690.0L856.0,691.0L856.0,705.0L855.0,706.0L854.0,729.0L853.0,730.0L853.0,740.0L852.0,741.0L851.0,772.0L850.0,773.0L849.0,787.0L844.0,799.0L833.0,809.0L834.0,811.0L846.0,811.0L847.0,812.0L907.0,811.0L907.0,809.0L899.0,800.0L896.0,792.0L896.0,767.0L897.0,766.0L899.0,725.0L900.0,724.0L904.0,662.0L905.0,661.0L905.0,646.0L906.0,645.0L906.0,635.0L907.0,634.0L907.0,625.0L908.0,624.0L908.0,615.0L909.0,614.0L910.0,584.0L911.0,583.0L911.0,573.0L912.0,572.0L912.0,562.0L913.0,561.0L915.0,525.0L917.0,516.0ZM804.0,509.0L798.0,509.0L778.0,514.0L769.0,514.0L761.0,516.0L746.0,517.0L744.0,519.0L752.0,527.0L755.0,535.0L754.0,573.0L753.0,574.0L753.0,584.0L752.0,585.0L750.0,626.0L748.0,636.0L747.0,667.0L746.0,668.0L746.0,679.0L745.0,680.0L744.0,701.0L743.0,702.0L743.0,712.0L742.0,713.0L740.0,757.0L739.0,758.0L737.0,785.0L733.0,798.0L726.0,806.0L721.0,809.0L722.0,811.0L796.0,811.0L796.0,809.0L788.0,802.0L784.0,791.0L784.0,771.0L785.0,770.0L785.0,760.0L786.0,759.0L786.0,745.0L787.0,744.0L790.0,693.0L792.0,683.0L795.0,628.0L797.0,618.0L798.0,589.0L799.0,588.0L800.0,561.0L801.0,560.0L801.0,550.0L802.0,549.0ZM1143.0,409.0L1143.0,410.0L1148.0,411.0L1198.0,412.0L1199.0,413.0L1226.0,414.0L1227.0,415.0L1236.0,415.0L1237.0,416.0L1250.0,416.0L1259.0,418.0L1275.0,419.0L1280.0,421.0L1288.0,421.0L1294.0,423.0L1302.0,423.0L1308.0,425.0L1327.0,427.0L1333.0,429.0L1339.0,429.0L1343.0,431.0L1349.0,431.0L1362.0,435.0L1366.0,435.0L1390.0,443.0L1403.0,451.0L1408.0,457.0L1409.0,463.0L1404.0,471.0L1392.0,480.0L1381.0,486.0L1379.0,486.0L1363.0,494.0L1337.0,503.0L1334.0,503.0L1312.0,511.0L1299.0,514.0L1280.0,521.0L1277.0,521.0L1264.0,526.0L1261.0,526.0L1227.0,537.0L1199.0,550.0L1184.0,561.0L1176.0,571.0L1174.0,577.0L1174.0,588.0L1180.0,599.0L1189.0,606.0L1197.0,610.0L1230.0,620.0L1233.0,620.0L1233.0,618.0L1219.0,613.0L1204.0,604.0L1195.0,592.0L1194.0,584.0L1197.0,577.0L1204.0,569.0L1211.0,564.0L1238.0,550.0L1267.0,540.0L1277.0,538.0L1286.0,534.0L1401.0,506.0L1441.0,493.0L1470.0,478.0L1477.0,472.0L1483.0,461.0L1482.0,454.0L1475.0,445.0L1464.0,438.0L1455.0,434.0L1415.0,424.0L1405.0,423.0L1388.0,419.0L1382.0,419.0L1376.0,417.0L1350.0,415.0L1349.0,414.0L1337.0,414.0L1336.0,413.0L1296.0,411.0L1295.0,410.0L1249.0,409.0L1248.0,408.0L1155.0,407.0L1154.0,408.0L1145.0,408.0ZM313.0,297.0L306.0,297.0L300.0,299.0L284.0,309.0L264.0,329.0L239.0,361.0L211.0,406.0L201.0,427.0L199.0,429.0L189.0,449.0L158.0,523.0L158.0,526.0L154.0,535.0L142.0,573.0L132.0,614.0L126.0,644.0L124.0,665.0L123.0,666.0L123.0,675.0L122.0,676.0L122.0,685.0L121.0,686.0L121.0,696.0L120.0,697.0L121.0,773.0L122.0,774.0L122.0,784.0L123.0,785.0L126.0,812.0L128.0,817.0L128.0,822.0L131.0,829.0L170.0,829.0L172.0,830.0L173.0,829.0L209.0,829.0L210.0,828.0L201.0,809.0L196.0,795.0L186.0,751.0L185.0,736.0L184.0,735.0L184.0,724.0L183.0,723.0L183.0,695.0L182.0,694.0L183.0,693.0L182.0,690.0L183.0,656.0L184.0,655.0L185.0,633.0L186.0,632.0L186.0,625.0L189.0,611.0L190.0,598.0L195.0,573.0L197.0,568.0L198.0,559.0L210.0,514.0L215.0,501.0L215.0,498.0L225.0,469.0L229.0,460.0L232.0,457.0L271.0,455.0L272.0,454.0L302.0,454.0L303.0,455.0L314.0,455.0L315.0,456.0L327.0,457.0L336.0,459.0L352.0,465.0L360.0,470.0L373.0,483.0L378.0,492.0L381.0,503.0L381.0,509.0L382.0,510.0L381.0,529.0L378.0,539.0L372.0,551.0L359.0,566.0L353.0,571.0L340.0,578.0L323.0,584.0L309.0,587.0L294.0,588.0L293.0,589.0L240.0,589.0L237.0,592.0L232.0,604.0L235.0,605.0L305.0,605.0L306.0,606.0L316.0,606.0L317.0,607.0L324.0,607.0L338.0,610.0L356.0,617.0L371.0,626.0L390.0,645.0L400.0,661.0L406.0,678.0L409.0,691.0L409.0,720.0L403.0,745.0L391.0,768.0L371.0,788.0L362.0,794.0L344.0,802.0L317.0,809.0L298.0,810.0L297.0,811.0L268.0,811.0L267.0,810.0L256.0,810.0L255.0,809.0L241.0,808.0L227.0,804.0L227.0,809.0L232.0,817.0L238.0,823.0L249.0,829.0L328.0,828.0L329.0,827.0L354.0,825.0L386.0,817.0L409.0,807.0L423.0,798.0L435.0,788.0L451.0,770.0L464.0,745.0L470.0,725.0L471.0,697.0L470.0,696.0L470.0,689.0L468.0,679.0L463.0,665.0L456.0,652.0L443.0,635.0L427.0,621.0L409.0,610.0L395.0,603.0L380.0,598.0L373.0,594.0L375.0,592.0L400.0,580.0L416.0,568.0L427.0,555.0L434.0,543.0L440.0,524.0L440.0,506.0L436.0,491.0L429.0,478.0L417.0,465.0L404.0,456.0L384.0,447.0L363.0,441.0L347.0,438.0L341.0,438.0L340.0,437.0L311.0,436.0L310.0,435.0L286.0,435.0L285.0,436.0L256.0,437.0L255.0,438.0L246.0,438.0L245.0,439.0L240.0,439.0L239.0,438.0L242.0,426.0L271.0,364.0L293.0,326.0L311.0,302.0ZM1354.0,128.0L1336.0,133.0L1322.0,140.0L1309.0,151.0L1297.0,164.0L1289.0,178.0L1283.0,198.0L1282.0,213.0L1281.0,214.0L1282.0,229.0L1283.0,230.0L1284.0,240.0L1292.0,259.0L1304.0,276.0L1316.0,287.0L1323.0,292.0L1343.0,301.0L1352.0,303.0L1360.0,303.0L1361.0,304.0L1383.0,304.0L1401.0,299.0L1412.0,294.0L1428.0,282.0L1441.0,267.0L1449.0,252.0L1455.0,234.0L1456.0,221.0L1457.0,220.0L1456.0,204.0L1453.0,191.0L1443.0,168.0L1432.0,154.0L1415.0,140.0L1402.0,133.0L1387.0,128.0L1375.0,128.0L1374.0,127.0L1372.0,128.0L1371.0,127.0Z"/>
  </g>
</svg>
